<svg width="128" height="128" viewBox="0 0 128 128"
     xmlns="http://www.w3.org/2000/svg">
  <path fill="#D3D3D3" d="M 39.7 7.7 C 25.98 13.47 14.44 24.3 8.18 38.26 L 67.85 27.19 Z"/>
  <path fill="#D3D3D3" d="M 86.63 7.01 C 72.85 1.39 57.02 0.88 42.73 6.33 L 92.75 40.69 Z"/>
  <path fill="#D3D3D3" d="M 120.3 39.7 C 114.53 25.98 103.7 14.44 89.74 8.18 L 100.81 67.85 Z"/>
  <path fill="#D3D3D3" d="M 120.99 86.63 C 126.61 72.85 127.12 57.02 121.67 42.73 L 87.31 92.75 Z"/>
  <path fill="#D3D3D3" d="M 88.3 120.3 C 102.02 114.53 113.56 103.7 119.82 89.74 L 60.15 100.81 Z"/>
  <path fill="#D3D3D3" d="M 41.37 120.99 C 55.15 126.61 70.98 127.12 85.27 121.67 L 35.25 87.31 Z"/>
  <path fill="#D3D3D3" d="M 7.7 88.3 C 13.47 102.02 24.3 113.56 38.26 119.82 L 27.19 60.15 Z"/>
  <path fill="#D3D3D3" d="M 7.01 41.37 C 1.39 55.15 0.88 70.98 6.33 85.27 L 40.69 35.25 Z"/>
</svg>
